# xmcd
#
# Track frame offsets: 
#        150
#        29909
#        58390
#        74392
#        109688
#        127771
#        147380
#        193371
#        220317
#        260470
#        276185
#        305459
#
# Disc length: 4401 seconds
#
# Revision: 0
# Processed by: cddbd v1.4PL0 Copyright (c) Steve Scherf et al.
# Submitted via: ExactAudioCopy v0.90b4
#
DISCID=c7112f0c
DTITLE=Eric Clapton - Live in Hyde Park, London June 29, 1996
DYEAR=1996
DGENRE=Blues
TTITLE0=Layla
TTITLE1=Badge
TTITLE2=Hoochie Coochie Man
TTITLE3=I Shot The Sheriff
TTITLE4=It Hurts Me Too
TTITLE5=Wonderful Tonight
TTITLE6=Five Long Years
TTITLE7=Tearin' Us Apart
TTITLE8=Old Love
TTITLE9=I'm Tore Down
TTITLE10=Have You Ever Loved A Woman
TTITLE11=White Room
EXTD=
EXTT0=
EXTT1=
EXTT2=
EXTT3=
EXTT4=
EXTT5=
EXTT6=
EXTT7=
EXTT8=
EXTT9=
EXTT10=
EXTT11=
PLAYORDER=
